<svg width="110" height="111" viewBox="0 0 110 111" fill="none" xmlns="http://www.w3.org/2000/svg">
<g clip-path="url(#clip0_1_7067)">
<g clip-path="url(#clip1_1_7067)">
<path d="M17.1875 84.6368V26.1816C17.1875 14.321 26.779 4.70605 38.6109 4.70605H25.5664C13.7008 4.70605 4.08203 14.3248 4.08203 26.1904V84.628C4.08203 96.4933 13.7008 106.112 25.5664 106.112H38.6109C26.779 106.112 17.1875 96.4974 17.1875 84.6368Z" fill="#CEE1F2"/>
<path d="M72.4023 104.915C70.1826 105.69 67.7967 106.112 65.3125 106.112H25.7812C13.9156 106.112 4.29688 96.4933 4.29688 84.628V26.1904C4.29688 14.3248 13.9156 4.70605 25.7812 4.70605H65.3125C77.1779 4.70605 86.7969 14.3248 86.7969 26.1904V48.749M54.7852 82.6944H71.1133M21.4844 82.4795L25.4341 86.5706C27.1343 88.2773 29.8912 88.2773 31.5915 86.5706L39.7461 78.1826" stroke="#405FF2" stroke-width="5" stroke-miterlimit="10" stroke-linecap="round" stroke-linejoin="round"/>
<path d="M105.047 70.472C100.32 68.6338 97.1951 68.3713 94.8535 68.3713C90.5029 68.3713 87.0117 71.8981 87.0117 76.2489C87.0117 80.5997 90.9148 84.1266 96.6917 84.1266C101.681 84.1266 105.703 87.6535 105.703 92.0043C105.703 96.3549 101.961 99.882 97.6106 99.882C95.5763 99.882 91.0458 99.2216 86.582 97.4472M96.6797 68.3713V61.4247M96.6797 99.8819V106.112M57.793 58.2021V59.9208M34.1602 58.2021V59.9208" stroke="#FF5CF4" stroke-width="5" stroke-miterlimit="10" stroke-linecap="round" stroke-linejoin="round"/>
<path d="M68.5352 37.1475H68.1835C68.1734 37.1238 68.1661 37.0994 68.1557 37.0759L64.3038 28.5295C64.3002 28.5215 64.2967 28.5138 64.2931 28.5058C62.5023 24.5959 58.9291 21.7309 54.734 20.8421C52.2427 20.3145 49.1996 19.96 45.8829 19.96C42.6308 19.96 39.6816 20.302 37.2649 20.8112C33.0507 21.6994 29.4639 24.5669 27.6706 28.482C27.6669 28.4899 27.6635 28.4979 27.6598 28.5058L23.7974 37.0757C23.7869 37.0991 23.7798 37.1236 23.7697 37.1473H23.418C21.0448 37.1473 19.1211 39.071 19.1211 41.4441C19.1211 43.8173 21.0448 45.741 23.418 45.741V49.7122C23.418 55.2229 27.8339 59.7061 33.2617 59.7061H58.6912C64.1193 59.7061 68.5352 55.2229 68.5352 49.7124V45.7412C70.9083 45.7412 72.832 43.8175 72.832 41.4444C72.832 39.0712 70.9083 37.1475 68.5352 37.1475ZM35.4885 32.0507C36.1541 30.6061 37.4799 29.5485 39.0369 29.2204C40.6093 28.8891 42.9015 28.5537 45.8831 28.5537C48.9326 28.5537 51.3212 28.9037 52.953 29.2494C54.4951 29.5762 55.811 30.6319 56.4755 32.0746L58.7617 37.1475H33.1914L35.4885 32.0507ZM35.0195 53.4756C32.1718 53.4756 29.8633 51.1671 29.8633 48.3194C29.8633 45.4716 32.1718 43.1631 35.0195 43.1631C37.8673 43.1631 40.1758 45.4716 40.1758 48.3194C40.1758 51.1671 37.8673 53.4756 35.0195 53.4756ZM56.9336 53.4756C54.0858 53.4756 51.7773 51.1671 51.7773 48.3194C51.7773 45.4716 54.0858 43.1631 56.9336 43.1631C59.7813 43.1631 62.0898 45.4716 62.0898 48.3194C62.0898 51.1671 59.7813 53.4756 56.9336 53.4756Z" fill="#FF5CF4"/>
</g>
</g>
<defs>
<clipPath id="clip0_1_7067">
<rect width="110" height="110" fill="white" transform="translate(0 0.40918)"/>
</clipPath>
<clipPath id="clip1_1_7067">
<rect width="110" height="110" fill="white" transform="translate(0 0.40918)"/>
</clipPath>
</defs>
</svg>
