<svg width="110" height="111" viewBox="0 0 110 111" fill="none" xmlns="http://www.w3.org/2000/svg">
<g clip-path="url(#clip0_1_7050)">
<g clip-path="url(#clip1_1_7050)">
<path d="M43.1686 15.2334C36.3829 15.2334 30.2324 19.2259 27.4699 25.4237L16.292 50.5022C9.59104 50.9626 4.29688 56.5406 4.29688 63.3584V76.249C4.29688 82.1817 9.10636 86.9912 15.0391 86.9912H17.9835C17.9994 86.1645 18.0204 85.338 18.0469 84.5115C17.3476 83.086 16.9533 81.4837 16.9533 79.7888L16.7578 72.167C16.7578 66.5304 17.9046 61.3533 22.0885 60.5104C24.0773 60.1098 25.7424 58.7548 26.5573 56.8968L40.3605 25.4237C43.1228 19.2259 49.2733 15.2334 56.0592 15.2334H43.1686Z" fill="#CEE1F2"/>
<path d="M94.9609 86.9912C100.894 86.9912 105.703 82.1817 105.703 76.249V63.3584C105.703 56.2391 99.9318 50.4678 92.8125 50.4678L79.5736 24.6597C76.6474 18.878 70.7184 15.2334 64.2383 15.2334H43.1686C36.3829 15.2334 30.2324 19.2259 27.4699 25.4237L16.292 50.5022C9.59104 50.9626 4.29688 56.5406 4.29688 63.3584V76.249C4.29688 82.1817 9.10636 86.9912 15.0391 86.9912" stroke="#405FF2" stroke-width="5" stroke-miterlimit="10" stroke-linecap="round" stroke-linejoin="round"/>
<path d="M38.0273 95.585C42.7735 95.585 46.6211 91.7374 46.6211 86.9912C46.6211 82.245 42.7735 78.3975 38.0273 78.3975C33.2811 78.3975 29.4336 82.245 29.4336 86.9912C29.4336 91.7374 33.2811 95.585 38.0273 95.585Z" stroke="#405FF2" stroke-width="5" stroke-miterlimit="10" stroke-linecap="round" stroke-linejoin="round"/>
<path d="M63.1646 86.9912H49.8438" stroke="#405FF2" stroke-width="5" stroke-miterlimit="10" stroke-linecap="round" stroke-linejoin="round"/>
<path d="M71.9727 95.585C76.7189 95.585 80.5664 91.7374 80.5664 86.9912C80.5664 82.245 76.7189 78.3975 71.9727 78.3975C67.2265 78.3975 63.3789 82.245 63.3789 86.9912C63.3789 91.7374 67.2265 95.585 71.9727 95.585Z" stroke="#405FF2" stroke-width="5" stroke-miterlimit="10" stroke-linecap="round" stroke-linejoin="round"/>
<path d="M51.5605 67.2255L63.5301 55.619C65.9359 53.2678 64.2726 49.1803 60.9098 49.1803H49.9472C46.5783 49.1803 44.9179 45.0796 47.3364 42.7325L59.7325 30.7021" stroke="#FF5CF3" stroke-width="5" stroke-miterlimit="10" stroke-linecap="round" stroke-linejoin="round"/>
</g>
</g>
<defs>
<clipPath id="clip0_1_7050">
<rect width="110" height="110" fill="white" transform="translate(0 0.40918)"/>
</clipPath>
<clipPath id="clip1_1_7050">
<rect width="110" height="110" fill="white" transform="translate(0 0.40918)"/>
</clipPath>
</defs>
</svg>
