<svg width="19" height="19" viewBox="0 0 19 19" fill="none" xmlns="http://www.w3.org/2000/svg">
<g clip-path="url(#clip0_1_7096)">
<path d="M10.9496 3.61C10.9496 3.45 10.8996 3.32 10.7996 3.22C10.6996 3.12 10.5696 3.07 10.4096 3.07H4.76957C4.60957 3.07 4.47957 3.12 4.37957 3.22C4.27957 3.32 4.22957 3.45 4.22957 3.61V8.11C4.22957 8.27 4.27957 8.41 4.37957 8.53C4.47957 8.65 4.60957 8.71 4.76957 8.71H10.4096C10.5696 8.71 10.6996 8.65 10.7996 8.53C10.8996 8.41 10.9496 8.27 10.9496 8.11V3.61ZM9.80957 7.57H5.30957V4.21H9.80957V7.57ZM17.4296 4.21L15.1496 3.13C15.0296 3.05 14.8896 3.03 14.7296 3.07C14.5696 3.11 14.4596 3.2 14.3996 3.34C14.3396 3.48 14.3296 3.63 14.3696 3.79C14.4096 3.95 14.5096 4.05 14.6696 4.09L15.5096 4.57L15.4496 4.75C15.4496 5.11 15.5596 5.43 15.7796 5.71C15.9996 5.99 16.2696 6.19 16.5896 6.31V13.15C16.5896 13.31 16.5296 13.45 16.4096 13.57C16.2896 13.69 16.1596 13.75 16.0196 13.75C15.8796 13.75 15.7496 13.69 15.6296 13.57C15.5096 13.45 15.4496 13.31 15.4496 13.15V8.65C15.4496 8.01 15.2196 7.43 14.7596 6.91C14.2996 6.39 13.7896 6.07 13.2296 5.95V2.47C13.2296 1.87 13.0096 1.35 12.5696 0.91C12.1296 0.470001 11.6096 0.25 11.0096 0.25H4.22957C3.62957 0.25 3.09957 0.470001 2.63957 0.91C2.17957 1.35 1.94957 1.87 1.94957 2.47V15.07L1.16957 15.49C0.92957 15.61 0.80957 15.77 0.80957 15.97V17.65C0.80957 17.81 0.86957 17.95 0.98957 18.07C1.10957 18.19 1.24957 18.25 1.40957 18.25H13.7696C13.9296 18.25 14.0596 18.19 14.1596 18.07C14.2596 17.95 14.3096 17.81 14.3096 17.65V15.97C14.3096 15.77 14.2096 15.61 14.0096 15.49L13.2296 15.07V7.09C13.5096 7.21 13.7596 7.42 13.9796 7.72C14.1996 8.02 14.3096 8.33 14.3096 8.65V13.15C14.3096 13.63 14.4796 14.04 14.8196 14.38C15.1596 14.72 15.5596 14.89 16.0196 14.89C16.4796 14.89 16.8796 14.72 17.2196 14.38C17.5596 14.04 17.7296 13.63 17.7296 13.15V4.75C17.7296 4.51 17.6296 4.33 17.4296 4.21ZM13.2296 17.11H1.94957V16.33L2.78957 15.91C2.98957 15.83 3.08957 15.67 3.08957 15.43V2.47C3.08957 2.19 3.19957 1.94 3.41957 1.72C3.63957 1.5 3.90957 1.39 4.22957 1.39H11.0096C11.2896 1.39 11.5396 1.5 11.7596 1.72C11.9796 1.94 12.0896 2.19 12.0896 2.47V15.43C12.0896 15.67 12.1896 15.83 12.3896 15.91L13.2296 16.33V17.11Z" fill="white"/>
</g>
<defs>
<clipPath id="clip0_1_7096">
<rect width="18" height="18" fill="white" transform="matrix(1 0 0 -1 0.269531 18.25)"/>
</clipPath>
</defs>
</svg>
