<svg width="15" height="15" viewBox="0 0 15 15" fill="none" xmlns="http://www.w3.org/2000/svg">
<path d="M14.5516 0.633789H5.996C5.78104 0.633789 5.6071 0.807732 5.6071 1.02269C5.6071 1.23765 5.78104 1.41159 5.996 1.41159H13.6128L1.05437 13.97C0.902449 14.1219 0.902449 14.368 1.05437 14.5199C1.13031 14.5958 1.22984 14.6338 1.32934 14.6338C1.42883 14.6338 1.52833 14.5958 1.60431 14.5199L14.1627 1.96149V9.57826C14.1627 9.79322 14.3366 9.96716 14.5516 9.96716C14.7666 9.96716 14.9405 9.79322 14.9405 9.57826V1.02269C14.9405 0.807732 14.7665 0.633789 14.5516 0.633789Z" fill="white"/>
</svg>
