<svg width="14" height="15" viewBox="0 0 14 15" fill="none" xmlns="http://www.w3.org/2000/svg">
<path d="M13.6109 0.329102H5.05533C4.84037 0.329102 4.66643 0.503045 4.66643 0.718003C4.66643 0.932961 4.84037 1.1069 5.05533 1.1069H12.6721L0.113697 13.6653C-0.0382245 13.8172 -0.0382245 14.0633 0.113697 14.2152C0.18964 14.2911 0.289171 14.3291 0.388666 14.3291C0.488161 14.3291 0.587656 14.2911 0.663635 14.2152L13.222 1.6568V9.27357C13.222 9.48853 13.3959 9.66247 13.6109 9.66247C13.8259 9.66247 13.9998 9.48853 13.9998 9.27357V0.718003C13.9998 0.503045 13.8258 0.329102 13.6109 0.329102Z" fill="#050B20"/>
</svg>
