<svg width="106" height="26" viewBox="0 0 106 26" fill="none" xmlns="http://www.w3.org/2000/svg">
<path d="M6.21039 0.721404C10.2004 0.721404 11.9154 2.57641 11.9154 6.35641V7.23141C11.9154 9.75141 11.1454 11.3614 9.43039 12.1664C11.4954 12.9714 12.3004 14.8264 12.3004 17.4164V19.4114C12.3004 23.1914 10.3054 25.2214 6.45539 25.2214H0.400391V0.721404H6.21039ZM5.96539 14.1964H4.25039V21.7214H6.45539C7.75039 21.7214 8.45039 21.1264 8.45039 19.3064V17.1714C8.45039 14.8964 7.71539 14.1964 5.96539 14.1964ZM6.10539 4.22141H4.25039V10.6964H5.75539C7.19039 10.6964 8.06539 10.0664 8.06539 8.10641V6.74141C8.06539 4.99141 7.47039 4.22141 6.10539 4.22141ZM19.9042 6.35641V19.5864C19.9042 21.3364 20.6742 22.0014 21.8992 22.0014C23.1242 22.0014 23.8942 21.3364 23.8942 19.5864V6.35641C23.8942 4.60641 23.1242 3.94141 21.8992 3.94141C20.6742 3.94141 19.9042 4.60641 19.9042 6.35641ZM16.0542 19.3414V6.60141C16.0542 2.68141 18.1192 0.441406 21.8992 0.441406C25.6792 0.441406 27.7442 2.68141 27.7442 6.60141V19.3414C27.7442 23.2614 25.6792 25.5014 21.8992 25.5014C18.1192 25.5014 16.0542 23.2614 16.0542 19.3414ZM40.7584 0.721404H44.3284L40.3034 12.6214L44.6084 25.2214H40.5484L37.3984 15.5264L34.2134 25.2214H30.6084L34.9134 12.6214L30.8884 0.721404H34.8784L37.7834 9.75141L40.7584 0.721404ZM55.2848 16.0864H58.9248V19.3414C58.9248 23.2614 56.9648 25.5014 53.1848 25.5014C49.4048 25.5014 47.4448 23.2614 47.4448 19.3414V6.60141C47.4448 2.68141 49.4048 0.441406 53.1848 0.441406C56.9648 0.441406 58.9248 2.68141 58.9248 6.60141V8.98141H55.2848V6.35641C55.2848 4.60641 54.5148 3.94141 53.2898 3.94141C52.0648 3.94141 51.2948 4.60641 51.2948 6.35641V19.5864C51.2948 21.3364 52.0648 21.9664 53.2898 21.9664C54.5148 21.9664 55.2848 21.3364 55.2848 19.5864V16.0864ZM71.5508 0.721404L75.4708 25.2214H71.5858L70.9208 20.7764H66.1958L65.5308 25.2214H61.9958L65.9158 0.721404H71.5508ZM68.5408 5.06141L66.6858 17.4514H70.3958L68.5408 5.06141ZM90.9837 25.2214H87.0637C86.8537 24.5914 86.7137 24.2064 86.7137 22.2114V18.3614C86.7137 16.0864 85.9437 15.2464 84.1937 15.2464H82.8637V25.2214H79.0137V0.721404H84.8237C88.8137 0.721404 90.5287 2.57641 90.5287 6.35641V8.28141C90.5287 10.8014 89.7237 12.4464 88.0087 13.2514C89.9337 14.0564 90.5637 15.9114 90.5637 18.4664V22.2464C90.5637 23.4364 90.5987 24.3114 90.9837 25.2214ZM84.7187 4.22141H82.8637V11.7464H84.3687C85.8037 11.7464 86.6787 11.1164 86.6787 9.15641V6.74141C86.6787 4.99141 86.0837 4.22141 84.7187 4.22141ZM94.3557 6.60141C94.3557 2.68141 96.2807 0.441406 100.025 0.441406C103.77 0.441406 105.695 2.68141 105.695 6.60141V7.37141H102.055V6.35641C102.055 4.60641 101.355 3.94141 100.13 3.94141C98.9057 3.94141 98.2057 4.60641 98.2057 6.35641C98.2057 11.3964 105.73 12.3414 105.73 19.3414C105.73 23.2614 103.77 25.5014 99.9904 25.5014C96.2107 25.5014 94.2507 23.2614 94.2507 19.3414V17.8364H97.8907V19.5864C97.8907 21.3364 98.6607 21.9664 99.8854 21.9664C101.11 21.9664 101.88 21.3364 101.88 19.5864C101.88 14.5464 94.3557 13.6014 94.3557 6.60141Z" fill="white"/>
</svg>
