<svg width="23" height="18" viewBox="0 0 23 18" fill="none" xmlns="http://www.w3.org/2000/svg">
<path d="M18.8934 0.604492H3.72673C2.08331 0.604492 0.747559 1.94024 0.747559 3.58366V14.417C0.747559 16.0604 2.08331 17.3962 3.72673 17.3962H18.8934C20.5369 17.3962 21.8726 16.0604 21.8726 14.417V3.58366C21.8726 1.94024 20.5369 0.604492 18.8934 0.604492ZM18.8934 2.22949C18.9184 2.22949 18.94 2.24249 18.9639 2.24358L12.1226 7.37533C11.6438 7.73391 10.9754 7.73391 10.4976 7.37533L3.65631 2.24358C3.68123 2.24249 3.70181 2.22949 3.72673 2.22949H18.8934ZM20.2476 14.417C20.2476 15.1634 19.6399 15.7712 18.8934 15.7712H3.72673C2.98031 15.7712 2.37256 15.1634 2.37256 14.417V3.58366C2.37256 3.50024 2.40614 3.42766 2.42023 3.34858L9.52256 8.67533C10.0491 9.06966 10.6796 9.26683 11.3101 9.26683C11.9406 9.26683 12.5722 9.06966 13.0976 8.67533L20.1999 3.34858C20.214 3.42766 20.2476 3.50024 20.2476 3.58366V14.417Z" fill="#050B20"/>
</svg>
