<svg width="18" height="18" viewBox="0 0 18 18" fill="none" xmlns="http://www.w3.org/2000/svg">
<path d="M2.99996 1.68031C2.43996 1.68031 1.95996 1.88031 1.55996 2.28031C1.15996 2.68031 0.959961 3.17031 0.959961 3.75031C0.959961 4.33031 1.15996 4.82031 1.55996 5.22031C1.95996 5.62031 2.43996 5.82031 2.99996 5.82031C3.55996 5.82031 4.03996 5.62031 4.43996 5.22031C4.83996 4.82031 5.03996 4.33031 5.03996 3.75031C5.03996 3.17031 4.83996 2.68031 4.43996 2.28031C4.03996 1.88031 3.55996 1.68031 2.99996 1.68031ZM2.99996 2.82031C3.23996 2.82031 3.45996 2.91031 3.65996 3.09031C3.85996 3.27031 3.95996 3.49031 3.95996 3.75031C3.95996 4.01031 3.85996 4.23031 3.65996 4.41031C3.45996 4.59031 3.23996 4.68031 2.99996 4.68031C2.75996 4.68031 2.53996 4.59031 2.33996 4.41031C2.13996 4.23031 2.03996 4.01031 2.03996 3.75031C2.03996 3.49031 2.13996 3.27031 2.33996 3.09031C2.53996 2.91031 2.75996 2.82031 2.99996 2.82031ZM2.99996 12.1803C2.43996 12.1803 1.95996 12.3803 1.55996 12.7803C1.15996 13.1803 0.959961 13.6703 0.959961 14.2503C0.959961 14.8303 1.15996 15.3203 1.55996 15.7203C1.95996 16.1203 2.43996 16.3203 2.99996 16.3203C3.55996 16.3203 4.03996 16.1203 4.43996 15.7203C4.83996 15.3203 5.03996 14.8303 5.03996 14.2503C5.03996 13.6703 4.83996 13.1803 4.43996 12.7803C4.03996 12.3803 3.55996 12.1803 2.99996 12.1803ZM2.99996 13.3203C3.23996 13.3203 3.45996 13.4103 3.65996 13.5903C3.85996 13.7703 3.95996 13.9903 3.95996 14.2503C3.95996 14.5103 3.85996 14.7303 3.65996 14.9103C3.45996 15.0903 3.23996 15.1803 2.99996 15.1803C2.75996 15.1803 2.53996 15.0903 2.33996 14.9103C2.13996 14.7303 2.03996 14.5103 2.03996 14.2503C2.03996 13.9903 2.13996 13.7703 2.33996 13.5903C2.53996 13.4103 2.75996 13.3203 2.99996 13.3203ZM8.99996 1.68031C8.43996 1.68031 7.95996 1.88031 7.55996 2.28031C7.15996 2.68031 6.95996 3.17031 6.95996 3.75031C6.95996 4.33031 7.15996 4.82031 7.55996 5.22031C7.95996 5.62031 8.43996 5.82031 8.99996 5.82031C9.55996 5.82031 10.04 5.62031 10.44 5.22031C10.84 4.82031 11.04 4.33031 11.04 3.75031C11.04 3.17031 10.84 2.68031 10.44 2.28031C10.04 1.88031 9.55996 1.68031 8.99996 1.68031ZM8.99996 2.82031C9.23996 2.82031 9.45996 2.91031 9.65996 3.09031C9.85996 3.27031 9.95996 3.49031 9.95996 3.75031C9.95996 4.01031 9.85996 4.23031 9.65996 4.41031C9.45996 4.59031 9.23996 4.68031 8.99996 4.68031C8.75996 4.68031 8.53996 4.59031 8.33996 4.41031C8.13996 4.23031 8.03996 4.01031 8.03996 3.75031C8.03996 3.49031 8.13996 3.27031 8.33996 3.09031C8.53996 2.91031 8.75996 2.82031 8.99996 2.82031ZM8.99996 12.1803C8.43996 12.1803 7.95996 12.3803 7.55996 12.7803C7.15996 13.1803 6.95996 13.6703 6.95996 14.2503C6.95996 14.8303 7.15996 15.3203 7.55996 15.7203C7.95996 16.1203 8.43996 16.3203 8.99996 16.3203C9.55996 16.3203 10.04 16.1203 10.44 15.7203C10.84 15.3203 11.04 14.8303 11.04 14.2503C11.04 13.6703 10.84 13.1803 10.44 12.7803C10.04 12.3803 9.55996 12.1803 8.99996 12.1803ZM8.99996 13.3203C9.23996 13.3203 9.45996 13.4103 9.65996 13.5903C9.85996 13.7703 9.95996 13.9903 9.95996 14.2503C9.95996 14.5103 9.85996 14.7303 9.65996 14.9103C9.45996 15.0903 9.23996 15.1803 8.99996 15.1803C8.75996 15.1803 8.53996 15.0903 8.33996 14.9103C8.13996 14.7303 8.03996 14.5103 8.03996 14.2503C8.03996 13.9903 8.13996 13.7703 8.33996 13.5903C8.53996 13.4103 8.75996 13.3203 8.99996 13.3203ZM15 1.68031C14.44 1.68031 13.96 1.88031 13.56 2.28031C13.16 2.68031 12.96 3.17031 12.96 3.75031C12.96 4.33031 13.16 4.82031 13.56 5.22031C13.96 5.62031 14.44 5.82031 15 5.82031C15.56 5.82031 16.04 5.62031 16.44 5.22031C16.84 4.82031 17.04 4.33031 17.04 3.75031C17.04 3.17031 16.84 2.68031 16.44 2.28031C16.04 1.88031 15.56 1.68031 15 1.68031ZM15 2.82031C15.24 2.82031 15.46 2.91031 15.66 3.09031C15.86 3.27031 15.96 3.49031 15.96 3.75031C15.96 4.01031 15.86 4.23031 15.66 4.41031C15.46 4.59031 15.24 4.68031 15 4.68031C14.76 4.68031 14.54 4.59031 14.34 4.41031C14.14 4.23031 14.04 4.01031 14.04 3.75031C14.04 3.49031 14.14 3.27031 14.34 3.09031C14.54 2.91031 14.76 2.82031 15 2.82031ZM15 12.1803C14.44 12.1803 13.96 12.3803 13.56 12.7803C13.16 13.1803 12.96 13.6703 12.96 14.2503C12.96 14.8303 13.16 15.3203 13.56 15.7203C13.96 16.1203 14.44 16.3203 15 16.3203C15.56 16.3203 16.04 16.1203 16.44 15.7203C16.84 15.3203 17.04 14.8303 17.04 14.2503C17.04 13.6703 16.84 13.1803 16.44 12.7803C16.04 12.3803 15.56 12.1803 15 12.1803ZM15 13.3203C15.24 13.3203 15.46 13.4103 15.66 13.5903C15.86 13.7703 15.96 13.9903 15.96 14.2503C15.96 14.5103 15.86 14.7303 15.66 14.9103C15.46 15.0903 15.24 15.1803 15 15.1803C14.76 15.1803 14.54 15.0903 14.34 14.9103C14.14 14.7303 14.04 14.5103 14.04 14.2503C14.04 13.9903 14.14 13.7703 14.34 13.5903C14.54 13.4103 14.76 13.3203 15 13.3203ZM2.45996 5.22031V12.7203C2.45996 12.8803 2.50996 13.0203 2.60996 13.1403C2.70996 13.2603 2.83996 13.3203 2.99996 13.3203C3.15996 13.3203 3.28996 13.2603 3.38996 13.1403C3.48996 13.0203 3.53996 12.9003 3.53996 12.7803V5.22031C3.53996 5.10031 3.48996 4.98031 3.38996 4.86031C3.28996 4.74031 3.15996 4.68031 2.99996 4.68031C2.83996 4.68031 2.70996 4.74031 2.60996 4.86031C2.50996 4.98031 2.45996 5.10031 2.45996 5.22031ZM8.45996 5.22031V12.7203C8.45996 12.8803 8.50996 13.0203 8.60996 13.1403C8.70996 13.2603 8.83996 13.3203 8.99996 13.3203C9.15996 13.3203 9.28996 13.2603 9.38996 13.1403C9.48996 13.0203 9.53996 12.9003 9.53996 12.7803V5.22031C9.53996 5.10031 9.48996 4.98031 9.38996 4.86031C9.28996 4.74031 9.15996 4.68031 8.99996 4.68031C8.83996 4.68031 8.70996 4.74031 8.60996 4.86031C8.50996 4.98031 8.45996 5.10031 8.45996 5.22031ZM14.46 5.22031V8.22031C14.46 8.30031 14.44 8.36031 14.4 8.40031C14.36 8.44031 14.32 8.46031 14.28 8.46031H2.99996C2.83996 8.46031 2.70996 8.51031 2.60996 8.61031C2.50996 8.71031 2.45996 8.84031 2.45996 9.00031C2.45996 9.16031 2.50996 9.29031 2.60996 9.39031C2.70996 9.49031 2.83996 9.54031 2.99996 9.54031H14.28C14.64 9.54031 14.94 9.42031 15.18 9.18031C15.42 8.94031 15.54 8.62031 15.54 8.22031V5.28031C15.54 5.12031 15.49 4.98031 15.39 4.86031C15.29 4.74031 15.16 4.68031 15 4.68031C14.84 4.68031 14.71 4.74031 14.61 4.86031C14.51 4.98031 14.46 5.10031 14.46 5.22031Z" fill="#050B20"/>
</svg>
