<svg width="18" height="19" viewBox="0 0 18 19" fill="none" xmlns="http://www.w3.org/2000/svg">
<g clip-path="url(#clip0_114_82)">
<path d="M18 11.3702C18 13.4102 17.4 15.2302 16.2 16.8302C16.08 16.9902 15.92 17.0802 15.72 17.1002C15.52 17.1202 15.34 17.0702 15.18 16.9502C15.02 16.8302 14.93 16.6802 14.91 16.5002C14.89 16.3202 14.94 16.1502 15.06 15.9902C16.1 14.6302 16.62 13.0902 16.62 11.3702C16.62 10.0102 16.28 8.75021 15.6 7.59021C14.92 6.43021 13.99 5.51021 12.81 4.83021C11.63 4.15021 10.36 3.81021 9 3.81021C7.64 3.81021 6.37 4.15021 5.19 4.83021C4.01 5.51021 3.08 6.43021 2.4 7.59021C1.72 8.75021 1.38 10.0102 1.38 11.3702C1.38 13.0902 1.9 14.6302 2.94 15.9902C3.06 16.1502 3.11 16.3202 3.09 16.5002C3.07 16.6802 2.98 16.8302 2.82 16.9502C2.66 17.0702 2.48 17.1202 2.28 17.1002C2.08 17.0802 1.92 16.9902 1.8 16.8302C0.6 15.2302 0 13.4102 0 11.3702C0 9.77021 0.4 8.28021 1.2 6.90021C2 5.52021 3.09 4.43021 4.47 3.63021C5.85 2.83021 7.36 2.43021 9 2.43021C10.64 2.43021 12.15 2.83021 13.53 3.63021C14.91 4.43021 16 5.52021 16.8 6.90021C17.6 8.28021 18 9.77021 18 11.3702ZM13.44 7.17021C13.6 7.29021 13.68 7.45021 13.68 7.65021C13.68 7.85021 13.6 8.01021 13.44 8.13021L11.16 10.4702C11.36 10.8302 11.46 11.2102 11.46 11.6102C11.46 12.2902 11.22 12.8702 10.74 13.3502C10.26 13.8302 9.68 14.0702 9 14.0702C8.32 14.0702 7.74 13.8302 7.26 13.3502C6.78 12.8702 6.54 12.2902 6.54 11.6102C6.54 10.9302 6.78 10.3502 7.26 9.87021C7.74 9.39021 8.32 9.15021 9 9.15021C9.4 9.15021 9.78 9.25021 10.14 9.45021L12.48 7.17021C12.6 7.01021 12.76 6.93021 12.96 6.93021C13.16 6.93021 13.32 7.01021 13.44 7.17021ZM10.08 11.6102C10.08 11.3302 9.97 11.0902 9.75 10.8902C9.53 10.6902 9.28 10.5902 9 10.5902C8.72 10.5902 8.47 10.6902 8.25 10.8902C8.03 11.0902 7.92 11.3302 7.92 11.6102C7.92 11.8902 8.03 12.1402 8.25 12.3602C8.47 12.5802 8.72 12.6902 9 12.6902C9.28 12.6902 9.53 12.5802 9.75 12.3602C9.97 12.1402 10.08 11.8902 10.08 11.6102Z" fill="#050B20"/>
</g>
<defs>
<clipPath id="clip0_114_82">
<rect width="18" height="18" fill="white" transform="matrix(1 0 0 -1 0 18.75)"/>
</clipPath>
</defs>
</svg>
