<svg width="18" height="18" viewBox="0 0 18 18" fill="none" xmlns="http://www.w3.org/2000/svg">
<path d="M15.7801 7.31965H16.3201C16.4801 7.31965 16.6101 7.25965 16.7101 7.13965C16.8101 7.01965 16.8601 6.88965 16.8601 6.74965C16.8601 6.60965 16.8101 6.47965 16.7101 6.35965C16.6101 6.23965 16.4801 6.17965 16.3201 6.17965H14.9401L14.1001 4.73965C13.8201 4.29965 13.4701 3.95965 13.0501 3.71965C12.6301 3.47965 12.1601 3.35965 11.6401 3.35965H6.36014C5.84014 3.35965 5.37014 3.47965 4.95014 3.71965C4.53014 3.95965 4.18014 4.29965 3.90014 4.73965L3.06014 6.17965H1.68014C1.52014 6.17965 1.39014 6.23965 1.29014 6.35965C1.19014 6.47965 1.14014 6.60965 1.14014 6.74965C1.14014 6.88965 1.19014 7.01965 1.29014 7.13965C1.39014 7.25965 1.52014 7.31965 1.68014 7.31965H2.28014L1.92014 7.73965C1.40014 8.45965 1.14014 9.25965 1.14014 10.1396V12.9596C1.14014 13.3996 1.30014 13.7896 1.62014 14.1296C1.94014 14.4696 2.34014 14.6396 2.82014 14.6396H3.96014C4.40014 14.6396 4.79014 14.4696 5.13014 14.1296C5.47014 13.7896 5.64014 13.3996 5.64014 12.9596H12.3601C12.3601 13.3996 12.5301 13.7896 12.8701 14.1296C13.2101 14.4696 13.6001 14.6396 14.0401 14.6396H15.1801C15.6601 14.6396 16.0601 14.4696 16.3801 14.1296C16.7001 13.7896 16.8601 13.3996 16.8601 12.9596V10.1396C16.8601 9.25965 16.6001 8.45965 16.0801 7.73965L15.7801 7.31965ZM4.86014 5.33965C5.02014 5.05965 5.23014 4.84965 5.49014 4.70965C5.75014 4.56965 6.04014 4.49965 6.36014 4.49965H11.6401C11.9601 4.49965 12.2501 4.56965 12.5101 4.70965C12.7701 4.84965 12.9801 5.05965 13.1401 5.33965L13.8601 6.59965L13.5001 6.83965C13.0201 7.15965 12.5001 7.31965 11.9401 7.31965H6.06014C5.50014 7.31965 4.98014 7.15965 4.50014 6.83965L4.14014 6.59965L4.86014 5.33965ZM15.7801 12.9596C15.7801 13.0796 15.7201 13.1996 15.6001 13.3196C15.4801 13.4396 15.3401 13.4996 15.1801 13.4996H14.0401C13.9201 13.4996 13.8001 13.4396 13.6801 13.3196C13.5601 13.1996 13.5001 13.0796 13.5001 12.9596V12.3596C13.5001 12.1996 13.4501 12.0696 13.3501 11.9696C13.2501 11.8696 13.1201 11.8196 12.9601 11.8196H5.04014C4.88014 11.8196 4.75014 11.8696 4.65014 11.9696C4.55014 12.0696 4.50014 12.1996 4.50014 12.3596V12.9596C4.50014 13.0796 4.44014 13.1996 4.32014 13.3196C4.20014 13.4396 4.08014 13.4996 3.96014 13.4996H2.82014C2.66014 13.4996 2.52014 13.4396 2.40014 13.3196C2.28014 13.1996 2.22014 13.0796 2.22014 12.9596V10.1396C2.26014 9.49965 2.46014 8.93965 2.82014 8.45965L3.48014 7.49965L3.90014 7.79965C4.58014 8.23965 5.30014 8.45965 6.06014 8.45965H11.9401C12.7001 8.45965 13.4201 8.23965 14.1001 7.79965L14.5201 7.49965L15.1801 8.45965C15.5401 8.93965 15.7201 9.49965 15.7201 10.1396V12.9596H15.7801ZM13.5001 10.1396C13.5001 10.2996 13.5501 10.4296 13.6501 10.5296C13.7501 10.6296 13.8801 10.6796 14.0401 10.6796C14.2001 10.6796 14.3401 10.6296 14.4601 10.5296C14.5801 10.4296 14.6401 10.2996 14.6401 10.1396C14.6401 9.97965 14.5801 9.83965 14.4601 9.71965C14.3401 9.59965 14.2001 9.53965 14.0401 9.53965C13.8801 9.53965 13.7501 9.59965 13.6501 9.71965C13.5501 9.83965 13.5001 9.97965 13.5001 10.1396ZM3.36014 10.1396C3.36014 10.2996 3.42014 10.4296 3.54014 10.5296C3.66014 10.6296 3.80014 10.6796 3.96014 10.6796C4.12014 10.6796 4.25014 10.6296 4.35014 10.5296C4.45014 10.4296 4.50014 10.2996 4.50014 10.1396C4.50014 9.97965 4.45014 9.83965 4.35014 9.71965C4.25014 9.59965 4.12014 9.53965 3.96014 9.53965C3.80014 9.53965 3.66014 9.59965 3.54014 9.71965C3.42014 9.83965 3.36014 9.97965 3.36014 10.1396Z" fill="#050B20"/>
</svg>
