<svg width="19" height="19" viewBox="0 0 19 19" fill="none" xmlns="http://www.w3.org/2000/svg">
<g clip-path="url(#clip0_114_117)">
<path d="M17.96 7.46969H16.28C16.12 7.46969 15.98 7.52969 15.86 7.64969C15.74 7.76969 15.68 7.90969 15.68 8.06969V8.60969H15.14V8.06969C15.14 7.90969 15.08 7.77969 14.96 7.67969C14.84 7.57969 14.7 7.52969 14.54 7.52969H13.7L12.14 5.96969C12.1 5.92969 12.04 5.88969 11.96 5.84969C11.88 5.80969 11.82 5.78969 11.78 5.78969H10.04V4.70969H11.18C11.34 4.70969 11.48 4.64969 11.6 4.52969C11.72 4.40969 11.78 4.26969 11.78 4.10969C11.78 3.94969 11.72 3.81969 11.6 3.71969C11.48 3.61969 11.34 3.56969 11.18 3.56969H6.14C5.98 3.56969 5.84 3.61969 5.72 3.71969C5.6 3.81969 5.54 3.94969 5.54 4.10969C5.54 4.26969 5.6 4.40969 5.72 4.52969C5.84 4.64969 5.98 4.70969 6.14 4.70969H7.28V5.78969H5.54L5.3 5.90969L5.12 6.02969L4.16 7.46969H2.78C2.62 7.46969 2.48 7.52969 2.36 7.64969C2.24 7.76969 2.18 7.90969 2.18 8.06969V9.74969H1.64V8.06969C1.64 7.90969 1.58 7.77969 1.46 7.67969C1.34 7.57969 1.2 7.51969 1.04 7.49969C0.88 7.47969 0.75 7.52969 0.65 7.64969C0.55 7.76969 0.5 7.90969 0.5 8.06969V13.1097C0.5 13.2697 0.55 13.4097 0.65 13.5297C0.75 13.6497 0.88 13.7097 1.04 13.7097C1.2 13.7097 1.34 13.6497 1.46 13.5297C1.58 13.4097 1.64 13.2697 1.64 13.1097V10.8897H2.18V13.1097C2.18 13.2697 2.24 13.4097 2.36 13.5297C2.48 13.6497 2.6 13.7097 2.72 13.7097H4.1L5.06 15.6297L5.18 15.7497L5.3 15.8697L5.54 15.9297H12.32C12.4 15.9297 12.48 15.9097 12.56 15.8697L12.74 15.7497L14.84 13.1097H15.68V13.7097C15.68 13.8697 15.74 13.9997 15.86 14.0997C15.98 14.1997 16.12 14.2497 16.28 14.2497H17.96C18.12 14.2497 18.25 14.1997 18.35 14.0997C18.45 13.9997 18.5 13.8697 18.5 13.7097V8.06969C18.5 7.90969 18.45 7.77969 18.35 7.67969C18.25 7.57969 18.12 7.52969 17.96 7.52969V7.46969ZM17.36 13.1097H16.82V12.5697C16.82 12.4097 16.76 12.2697 16.64 12.1497C16.52 12.0297 16.4 11.9697 16.28 11.9697L14.54 12.0297L14.3 12.0897L14.12 12.2097L12.02 14.7897H5.9L4.94 12.8097L4.82 12.6897L4.52 12.5697H3.32V8.60969H4.46H4.64L4.82 8.48969L5.84 6.92969H7.82C7.98 6.92969 8.11 6.87969 8.21 6.77969C8.31 6.67969 8.36 6.54969 8.36 6.38969V4.70969H8.96V6.38969C8.96 6.54969 9.01 6.67969 9.11 6.77969C9.21 6.87969 9.34 6.92969 9.5 6.92969H11.54L13.04 8.42969C13.08 8.50969 13.14 8.55969 13.22 8.57969C13.3 8.59969 13.38 8.60969 13.46 8.60969H14V9.20969C14 9.36969 14.05 9.49969 14.15 9.59969C14.25 9.69969 14.38 9.74969 14.54 9.74969H16.28C16.4 9.74969 16.52 9.69969 16.64 9.59969C16.76 9.49969 16.82 9.36969 16.82 9.20969V8.60969H17.36V13.1097ZM11.48 8.72969C11.36 8.64969 11.23 8.61969 11.09 8.63969C10.95 8.65969 10.82 8.72969 10.7 8.84969L8.42 12.3297L7.04 11.2497C6.92 11.1697 6.78 11.1397 6.62 11.1597C6.46 11.1797 6.33 11.2497 6.23 11.3697C6.13 11.4897 6.09 11.6297 6.11 11.7897C6.13 11.9497 6.2 12.0697 6.32 12.1497L8.18 13.5897C8.3 13.6697 8.42 13.7097 8.54 13.7097H8.6C8.76 13.6697 8.88 13.5697 8.96 13.4097L11.66 9.50969C11.74 9.38969 11.77 9.24969 11.75 9.08969C11.73 8.92969 11.64 8.80969 11.48 8.72969Z" fill="#050B20"/>
</g>
<defs>
<clipPath id="clip0_114_117">
<rect width="18" height="18" fill="white" transform="matrix(1 0 0 -1 0.5 18.75)"/>
</clipPath>
</defs>
</svg>
