<svg width="12" height="19" viewBox="0 0 12 19" fill="none" xmlns="http://www.w3.org/2000/svg">
<path d="M9.33333 1.0957H2.66667C1.4025 1.0957 0.375 2.1232 0.375 3.38737V15.054C0.375 16.3182 1.4025 17.3457 2.66667 17.3457H9.33333C10.5975 17.3457 11.625 16.3182 11.625 15.054V3.38737C11.625 2.1232 10.5975 1.0957 9.33333 1.0957ZM10.375 15.054C10.375 15.6282 9.9075 16.0957 9.33333 16.0957H2.66667C2.0925 16.0957 1.625 15.6282 1.625 15.054V3.38737C1.625 2.8132 2.0925 2.3457 2.66667 2.3457H9.33333C9.9075 2.3457 10.375 2.8132 10.375 3.38737V15.054ZM7.45833 4.2207C7.45833 4.5657 7.17833 4.8457 6.83333 4.8457H5.16667C4.82167 4.8457 4.54167 4.5657 4.54167 4.2207C4.54167 3.8757 4.82167 3.5957 5.16667 3.5957H6.83333C7.17833 3.5957 7.45833 3.8757 7.45833 4.2207Z" fill="white"/>
</svg>
