<svg width="36" height="35" viewBox="0 0 36 35" fill="none" xmlns="http://www.w3.org/2000/svg">
<mask id="mask0_1_6967" style="mask-type:luminance" maskUnits="userSpaceOnUse" x="1" y="0" width="34" height="35">
<path d="M35 0.0898438H1V34.0898H35V0.0898438Z" fill="white"/>
</mask>
<g mask="url(#mask0_1_6967)">
<path d="M31.759 15.6776L25.8898 14.6989C25.5466 14.1415 24.8644 13.1332 23.8725 12.123C21.8927 10.1067 19.6133 9.04102 17.2806 9.04102H7.7225C6.16993 9.04102 4.73044 9.88046 3.96577 11.2317L1.3319 15.8865C1.32765 15.894 1.32446 15.9018 1.32041 15.9094C1.11668 16.274 1 16.6936 1 17.1402V22.0451C1 22.5952 1.44598 23.0411 1.99609 23.0411H5.18632C5.65455 24.2663 6.848 25.1397 8.24339 25.1397C9.63879 25.1397 10.8322 24.2663 11.3005 23.0411H23.672C24.1402 24.2663 25.3336 25.1397 26.729 25.1397C28.1244 25.1397 29.3178 24.2663 29.786 23.0411H34.0039C34.554 23.0411 35 22.5952 35 22.0451V19.4081C35 17.5395 33.6077 15.9385 31.759 15.6776ZM23.3976 14.6085H16.222V11.0332H17.2806C20.104 11.0332 22.2363 13.1205 23.3976 14.6085ZM9.57371 11.0332H14.2299V14.6085H9.57371V11.0332ZM5.69964 12.2128C6.08811 11.5263 6.80012 11.0856 7.58152 11.038V14.6085H4.34402L5.69964 12.2128ZM8.24339 23.1475C7.53929 23.1475 6.96647 22.5843 6.96647 21.8919C6.96647 21.1996 7.53929 20.6363 8.24339 20.6363C8.9475 20.6363 9.52032 21.1996 9.52032 21.8919C9.52032 22.5843 8.9475 23.1475 8.24339 23.1475ZM26.729 23.1475C26.0248 23.1475 25.452 22.5843 25.452 21.8919C25.452 21.1996 26.0249 20.6363 26.729 20.6363C27.4331 20.6363 28.0059 21.1996 28.0059 21.8919C28.0059 22.5843 27.4331 23.1475 26.729 23.1475ZM29.8857 21.0489C29.5111 19.6656 28.2381 18.6441 26.729 18.6441C25.2198 18.6441 23.9469 19.6656 23.5721 21.0489H11.4001C11.0255 19.6656 9.75254 18.6441 8.24339 18.6441C6.73425 18.6441 5.4613 19.6656 5.08657 21.0489H2.99219V17.1402C2.99219 16.8427 3.23417 16.6007 3.53167 16.6007H25.183L31.4445 17.6449C31.4541 17.6465 31.4637 17.648 31.4734 17.6493C31.6428 17.6725 31.804 17.7198 31.9541 17.787C31.5374 17.9062 31.232 18.2891 31.232 18.7441C31.232 19.2942 31.678 19.7402 32.2281 19.7402H33.0078V21.049L29.8857 21.0489Z" fill="#050B20"/>
</g>
</svg>
