<svg width="19" height="19" viewBox="0 0 19 19" fill="none" xmlns="http://www.w3.org/2000/svg">
<g clip-path="url(#clip0_1_7093)">
<path d="M18.3799 10.8702C18.3799 12.9102 17.7799 14.7302 16.5799 16.3302C16.4599 16.4902 16.2999 16.5802 16.0999 16.6002C15.8999 16.6202 15.7199 16.5702 15.5599 16.4502C15.3999 16.3302 15.3099 16.1802 15.2899 16.0002C15.2699 15.8202 15.3199 15.6502 15.4399 15.4902C16.4799 14.1302 16.9999 12.5902 16.9999 10.8702C16.9999 9.51021 16.6599 8.25021 15.9799 7.09021C15.2999 5.93021 14.3699 5.01021 13.1899 4.33021C12.0099 3.65021 10.7399 3.31021 9.37988 3.31021C8.01988 3.31021 6.74988 3.65021 5.56988 4.33021C4.38988 5.01021 3.45988 5.93021 2.77988 7.09021C2.09988 8.25021 1.75988 9.51021 1.75988 10.8702C1.75988 12.5902 2.27988 14.1302 3.31988 15.4902C3.43988 15.6502 3.48988 15.8202 3.46988 16.0002C3.44988 16.1802 3.35988 16.3302 3.19988 16.4502C3.03988 16.5702 2.85988 16.6202 2.65988 16.6002C2.45988 16.5802 2.29988 16.4902 2.17988 16.3302C0.979883 14.7302 0.379883 12.9102 0.379883 10.8702C0.379883 9.27021 0.779883 7.78021 1.57988 6.40021C2.37988 5.02021 3.46988 3.93021 4.84988 3.13021C6.22988 2.33021 7.73988 1.93021 9.37988 1.93021C11.0199 1.93021 12.5299 2.33021 13.9099 3.13021C15.2899 3.93021 16.3799 5.02021 17.1799 6.40021C17.9799 7.78021 18.3799 9.27021 18.3799 10.8702ZM13.8199 6.67021C13.9799 6.79021 14.0599 6.95021 14.0599 7.15021C14.0599 7.35021 13.9799 7.51021 13.8199 7.63021L11.5399 9.97021C11.7399 10.3302 11.8399 10.7102 11.8399 11.1102C11.8399 11.7902 11.5999 12.3702 11.1199 12.8502C10.6399 13.3302 10.0599 13.5702 9.37988 13.5702C8.69988 13.5702 8.11988 13.3302 7.63988 12.8502C7.15988 12.3702 6.91988 11.7902 6.91988 11.1102C6.91988 10.4302 7.15988 9.85021 7.63988 9.37021C8.11988 8.89021 8.69988 8.65021 9.37988 8.65021C9.77988 8.65021 10.1599 8.75021 10.5199 8.95021L12.8599 6.67021C12.9799 6.51021 13.1399 6.43021 13.3399 6.43021C13.5399 6.43021 13.6999 6.51021 13.8199 6.67021ZM10.4599 11.1102C10.4599 10.8302 10.3499 10.5902 10.1299 10.3902C9.90988 10.1902 9.65988 10.0902 9.37988 10.0902C9.09988 10.0902 8.84988 10.1902 8.62988 10.3902C8.40988 10.5902 8.29988 10.8302 8.29988 11.1102C8.29988 11.3902 8.40988 11.6402 8.62988 11.8602C8.84988 12.0802 9.09988 12.1902 9.37988 12.1902C9.65988 12.1902 9.90988 12.0802 10.1299 11.8602C10.3499 11.6402 10.4599 11.3902 10.4599 11.1102Z" fill="white"/>
</g>
<defs>
<clipPath id="clip0_1_7093">
<rect width="18" height="18" fill="white" transform="matrix(1 0 0 -1 0.379883 18.25)"/>
</clipPath>
</defs>
</svg>
