<svg width="34" height="35" viewBox="0 0 34 35" fill="none" xmlns="http://www.w3.org/2000/svg">
<mask id="mask0_1_6958" style="mask-type:luminance" maskUnits="userSpaceOnUse" x="0" y="0" width="34" height="35">
<path d="M34 0.0898438H0V34.0898H34V0.0898438Z" fill="white"/>
</mask>
<g mask="url(#mask0_1_6958)">
<path d="M32.8913 21.5256H31.7826V15.9822C31.7826 14.1481 30.2905 12.6561 28.4565 12.6561H24.8209L23.3616 8.27812C22.908 6.91786 21.6399 6.00391 20.2061 6.00391C20.0334 6.00391 8.04731 6.00391 7.76083 6.00391C6.31543 6.00391 5.08313 6.93087 4.62546 8.22128H3.32609C1.49208 8.22128 0 9.71336 0 11.5473V15.9822C0 17.8162 1.49208 19.3082 3.32609 19.3082H4.43481V21.5256H3.32609C2.71382 21.5256 2.21737 22.022 2.21737 22.6343C2.21737 23.2467 2.71376 23.7431 3.32609 23.7431C4.36442 23.7431 5.6104 23.7431 6.65218 23.7431C6.65218 26.1884 8.64164 28.1779 11.087 28.1779C13.5323 28.1779 15.5218 26.1884 15.5218 23.7431H20.6957C20.6957 26.1884 22.6852 28.1779 25.1305 28.1779C27.5759 28.1779 29.5653 26.1884 29.5653 23.7431C30.6074 23.7431 31.8538 23.7431 32.8914 23.7431C33.5037 23.7431 34.0001 23.2467 34.0001 22.6343C34.0001 22.022 33.5036 21.5256 32.8913 21.5256ZM4.43481 17.0908H3.32609C2.71475 17.0908 2.21737 16.5934 2.21737 15.9821V11.5473C2.21737 10.9359 2.71475 10.4386 3.32609 10.4386H4.43481C4.43481 11.145 4.43481 16.4058 4.43481 17.0908ZM15.5217 8.22128H17.3696H20.2061C20.6841 8.22128 21.1068 8.52595 21.2579 8.9793L22.4834 12.656H15.5217V8.22128ZM6.65218 9.32993C6.65218 8.71859 7.14956 8.22121 7.7609 8.22121H13.3044V12.656H6.65218V9.32993ZM11.087 25.9604C9.86432 25.9604 8.86962 24.9657 8.86962 23.743C8.86962 22.5203 9.86432 21.5256 11.087 21.5256C12.3097 21.5256 13.3044 22.5203 13.3044 23.743C13.3044 24.9657 12.3097 25.9604 11.087 25.9604ZM25.1304 25.9604C23.9078 25.9604 22.9131 24.9657 22.9131 23.743C22.9131 22.5203 23.9078 21.5256 25.1304 21.5256C26.3531 21.5256 27.3478 22.5203 27.3478 23.743C27.3478 24.9657 26.3531 25.9604 25.1304 25.9604ZM29.5652 21.5256H28.9686C28.2005 20.2014 26.7683 19.3082 25.1304 19.3082C23.4926 19.3082 22.0604 20.2014 21.2923 21.5256H14.9251C14.1571 20.2014 12.7248 19.3082 11.087 19.3082C9.44914 19.3082 8.01689 20.2014 7.24884 21.5256H6.65225V18.1995V14.8734C8.46022 14.8734 27.2694 14.8734 28.4566 14.8734C29.0679 14.8734 29.5653 15.3708 29.5653 15.9822L29.5652 21.5256Z" fill="#050B20"/>
<path d="M18.8486 17.0898H16.6312C16.0189 17.0898 15.5225 17.5862 15.5225 18.1985C15.5225 18.8108 16.0189 19.3072 16.6312 19.3072H18.8486C19.4608 19.3072 19.9573 18.8109 19.9573 18.1985C19.9573 17.5862 19.4609 17.0898 18.8486 17.0898Z" fill="#050B20"/>
</g>
</svg>
