<svg width="19" height="19" viewBox="0 0 19 19" fill="none" xmlns="http://www.w3.org/2000/svg">
<path d="M3.88961 1.93031C3.32961 1.93031 2.84961 2.13031 2.44961 2.53031C2.04961 2.93031 1.84961 3.42031 1.84961 4.00031C1.84961 4.58031 2.04961 5.07031 2.44961 5.47031C2.84961 5.87031 3.32961 6.07031 3.88961 6.07031C4.44961 6.07031 4.92961 5.87031 5.32961 5.47031C5.72961 5.07031 5.92961 4.58031 5.92961 4.00031C5.92961 3.42031 5.72961 2.93031 5.32961 2.53031C4.92961 2.13031 4.44961 1.93031 3.88961 1.93031ZM3.88961 3.07031C4.12961 3.07031 4.34961 3.16031 4.54961 3.34031C4.74961 3.52031 4.84961 3.74031 4.84961 4.00031C4.84961 4.26031 4.74961 4.48031 4.54961 4.66031C4.34961 4.84031 4.12961 4.93031 3.88961 4.93031C3.64961 4.93031 3.42961 4.84031 3.22961 4.66031C3.02961 4.48031 2.92961 4.26031 2.92961 4.00031C2.92961 3.74031 3.02961 3.52031 3.22961 3.34031C3.42961 3.16031 3.64961 3.07031 3.88961 3.07031ZM3.88961 12.4303C3.32961 12.4303 2.84961 12.6303 2.44961 13.0303C2.04961 13.4303 1.84961 13.9203 1.84961 14.5003C1.84961 15.0803 2.04961 15.5703 2.44961 15.9703C2.84961 16.3703 3.32961 16.5703 3.88961 16.5703C4.44961 16.5703 4.92961 16.3703 5.32961 15.9703C5.72961 15.5703 5.92961 15.0803 5.92961 14.5003C5.92961 13.9203 5.72961 13.4303 5.32961 13.0303C4.92961 12.6303 4.44961 12.4303 3.88961 12.4303ZM3.88961 13.5703C4.12961 13.5703 4.34961 13.6603 4.54961 13.8403C4.74961 14.0203 4.84961 14.2403 4.84961 14.5003C4.84961 14.7603 4.74961 14.9803 4.54961 15.1603C4.34961 15.3403 4.12961 15.4303 3.88961 15.4303C3.64961 15.4303 3.42961 15.3403 3.22961 15.1603C3.02961 14.9803 2.92961 14.7603 2.92961 14.5003C2.92961 14.2403 3.02961 14.0203 3.22961 13.8403C3.42961 13.6603 3.64961 13.5703 3.88961 13.5703ZM9.88961 1.93031C9.32961 1.93031 8.84961 2.13031 8.44961 2.53031C8.04961 2.93031 7.84961 3.42031 7.84961 4.00031C7.84961 4.58031 8.04961 5.07031 8.44961 5.47031C8.84961 5.87031 9.32961 6.07031 9.88961 6.07031C10.4496 6.07031 10.9296 5.87031 11.3296 5.47031C11.7296 5.07031 11.9296 4.58031 11.9296 4.00031C11.9296 3.42031 11.7296 2.93031 11.3296 2.53031C10.9296 2.13031 10.4496 1.93031 9.88961 1.93031ZM9.88961 3.07031C10.1296 3.07031 10.3496 3.16031 10.5496 3.34031C10.7496 3.52031 10.8496 3.74031 10.8496 4.00031C10.8496 4.26031 10.7496 4.48031 10.5496 4.66031C10.3496 4.84031 10.1296 4.93031 9.88961 4.93031C9.64961 4.93031 9.42961 4.84031 9.22961 4.66031C9.02961 4.48031 8.92961 4.26031 8.92961 4.00031C8.92961 3.74031 9.02961 3.52031 9.22961 3.34031C9.42961 3.16031 9.64961 3.07031 9.88961 3.07031ZM9.88961 12.4303C9.32961 12.4303 8.84961 12.6303 8.44961 13.0303C8.04961 13.4303 7.84961 13.9203 7.84961 14.5003C7.84961 15.0803 8.04961 15.5703 8.44961 15.9703C8.84961 16.3703 9.32961 16.5703 9.88961 16.5703C10.4496 16.5703 10.9296 16.3703 11.3296 15.9703C11.7296 15.5703 11.9296 15.0803 11.9296 14.5003C11.9296 13.9203 11.7296 13.4303 11.3296 13.0303C10.9296 12.6303 10.4496 12.4303 9.88961 12.4303ZM9.88961 13.5703C10.1296 13.5703 10.3496 13.6603 10.5496 13.8403C10.7496 14.0203 10.8496 14.2403 10.8496 14.5003C10.8496 14.7603 10.7496 14.9803 10.5496 15.1603C10.3496 15.3403 10.1296 15.4303 9.88961 15.4303C9.64961 15.4303 9.42961 15.3403 9.22961 15.1603C9.02961 14.9803 8.92961 14.7603 8.92961 14.5003C8.92961 14.2403 9.02961 14.0203 9.22961 13.8403C9.42961 13.6603 9.64961 13.5703 9.88961 13.5703ZM15.8896 1.93031C15.3296 1.93031 14.8496 2.13031 14.4496 2.53031C14.0496 2.93031 13.8496 3.42031 13.8496 4.00031C13.8496 4.58031 14.0496 5.07031 14.4496 5.47031C14.8496 5.87031 15.3296 6.07031 15.8896 6.07031C16.4496 6.07031 16.9296 5.87031 17.3296 5.47031C17.7296 5.07031 17.9296 4.58031 17.9296 4.00031C17.9296 3.42031 17.7296 2.93031 17.3296 2.53031C16.9296 2.13031 16.4496 1.93031 15.8896 1.93031ZM15.8896 3.07031C16.1296 3.07031 16.3496 3.16031 16.5496 3.34031C16.7496 3.52031 16.8496 3.74031 16.8496 4.00031C16.8496 4.26031 16.7496 4.48031 16.5496 4.66031C16.3496 4.84031 16.1296 4.93031 15.8896 4.93031C15.6496 4.93031 15.4296 4.84031 15.2296 4.66031C15.0296 4.48031 14.9296 4.26031 14.9296 4.00031C14.9296 3.74031 15.0296 3.52031 15.2296 3.34031C15.4296 3.16031 15.6496 3.07031 15.8896 3.07031ZM15.8896 12.4303C15.3296 12.4303 14.8496 12.6303 14.4496 13.0303C14.0496 13.4303 13.8496 13.9203 13.8496 14.5003C13.8496 15.0803 14.0496 15.5703 14.4496 15.9703C14.8496 16.3703 15.3296 16.5703 15.8896 16.5703C16.4496 16.5703 16.9296 16.3703 17.3296 15.9703C17.7296 15.5703 17.9296 15.0803 17.9296 14.5003C17.9296 13.9203 17.7296 13.4303 17.3296 13.0303C16.9296 12.6303 16.4496 12.4303 15.8896 12.4303ZM15.8896 13.5703C16.1296 13.5703 16.3496 13.6603 16.5496 13.8403C16.7496 14.0203 16.8496 14.2403 16.8496 14.5003C16.8496 14.7603 16.7496 14.9803 16.5496 15.1603C16.3496 15.3403 16.1296 15.4303 15.8896 15.4303C15.6496 15.4303 15.4296 15.3403 15.2296 15.1603C15.0296 14.9803 14.9296 14.7603 14.9296 14.5003C14.9296 14.2403 15.0296 14.0203 15.2296 13.8403C15.4296 13.6603 15.6496 13.5703 15.8896 13.5703ZM3.34961 5.47031V12.9703C3.34961 13.1303 3.39961 13.2703 3.49961 13.3903C3.59961 13.5103 3.72961 13.5703 3.88961 13.5703C4.04961 13.5703 4.17961 13.5103 4.27961 13.3903C4.37961 13.2703 4.42961 13.1503 4.42961 13.0303V5.47031C4.42961 5.35031 4.37961 5.23031 4.27961 5.11031C4.17961 4.99031 4.04961 4.93031 3.88961 4.93031C3.72961 4.93031 3.59961 4.99031 3.49961 5.11031C3.39961 5.23031 3.34961 5.35031 3.34961 5.47031ZM9.34961 5.47031V12.9703C9.34961 13.1303 9.39961 13.2703 9.49961 13.3903C9.59961 13.5103 9.72961 13.5703 9.88961 13.5703C10.0496 13.5703 10.1796 13.5103 10.2796 13.3903C10.3796 13.2703 10.4296 13.1503 10.4296 13.0303V5.47031C10.4296 5.35031 10.3796 5.23031 10.2796 5.11031C10.1796 4.99031 10.0496 4.93031 9.88961 4.93031C9.72961 4.93031 9.59961 4.99031 9.49961 5.11031C9.39961 5.23031 9.34961 5.35031 9.34961 5.47031ZM15.3496 5.47031V8.47031C15.3496 8.55031 15.3296 8.61031 15.2896 8.65031C15.2496 8.69031 15.2096 8.71031 15.1696 8.71031H3.88961C3.72961 8.71031 3.59961 8.76031 3.49961 8.86031C3.39961 8.96031 3.34961 9.09031 3.34961 9.25031C3.34961 9.41031 3.39961 9.54031 3.49961 9.64031C3.59961 9.74031 3.72961 9.79031 3.88961 9.79031H15.1696C15.5296 9.79031 15.8296 9.67031 16.0696 9.43031C16.3096 9.19031 16.4296 8.87031 16.4296 8.47031V5.53031C16.4296 5.37031 16.3796 5.23031 16.2796 5.11031C16.1796 4.99031 16.0496 4.93031 15.8896 4.93031C15.7296 4.93031 15.5996 4.99031 15.4996 5.11031C15.3996 5.23031 15.3496 5.35031 15.3496 5.47031Z" fill="white"/>
</svg>
