<svg width="61" height="61" viewBox="0 0 61 61" fill="none" xmlns="http://www.w3.org/2000/svg">
<g clip-path="url(#clip0_1_7225)">
<g clip-path="url(#clip1_1_7225)">
<g clip-path="url(#clip2_1_7225)">
<path d="M30.5 2.4834V7.1709" stroke="#FF5CF4" stroke-width="3" stroke-miterlimit="10" stroke-linecap="round" stroke-linejoin="round"/>
<path d="M49.25 2.4834L44.5625 7.1709" stroke="#FF5CF4" stroke-width="3" stroke-miterlimit="10" stroke-linecap="round" stroke-linejoin="round"/>
<path d="M15.9738 36.8003C14.8072 35.5452 14.0938 33.8632 14.0938 32.0146C14.0938 30.886 14.3596 29.8196 14.8323 28.8743L19.5198 19.4993C20.6732 17.1925 23.0579 15.6084 25.8125 15.6084H18.7812C16.0266 15.6084 13.642 17.1925 12.4885 19.4993L7.80102 28.8743C7.3284 29.8196 7.0625 30.886 7.0625 32.0146C7.0625 33.8632 7.77594 35.5452 8.94254 36.8003L27.0658 56.2988C27.9218 57.2198 29.1436 57.7958 30.5 57.7958C31.8564 57.7958 33.0782 57.2198 33.9342 56.2989L34.0156 56.2112L15.9738 36.8003Z" fill="#EEF1FB"/>
<path d="M48.5115 19.4993L53.199 28.8743C53.6716 29.8194 53.9375 30.886 53.9375 32.0146C53.9375 33.8632 53.2241 35.5453 52.0575 36.8004L33.9342 56.2989C33.0782 57.2198 31.8564 57.7958 30.5 57.7958C29.1436 57.7958 27.9218 57.2198 27.0658 56.2989L8.94254 36.8004C7.77594 35.5453 7.0625 33.8632 7.0625 32.0146C7.0625 30.886 7.3284 29.8194 7.80102 28.8743L12.4885 19.4993C13.642 17.1924 16.0266 15.6084 18.7812 15.6084H42.2188C44.9734 15.6084 47.358 17.1924 48.5115 19.4993Z" stroke="#405FF2" stroke-width="3" stroke-miterlimit="10" stroke-linecap="round" stroke-linejoin="round"/>
<path d="M11.75 2.4834L16.4375 7.1709" stroke="#FF5CF4" stroke-width="3" stroke-miterlimit="10" stroke-linecap="round" stroke-linejoin="round"/>
<path d="M17.8848 29.6709H43.115" stroke="#405FF2" stroke-width="3" stroke-miterlimit="10" stroke-linecap="round" stroke-linejoin="round"/>
<path d="M25.8125 24.9834L30.5 29.6708L35.1875 24.9834" stroke="#405FF2" stroke-width="3" stroke-miterlimit="10" stroke-linecap="round" stroke-linejoin="round"/>
<path d="M30.5 43.7333V29.8701" stroke="#405FF2" stroke-width="3" stroke-miterlimit="10" stroke-linecap="round" stroke-linejoin="round"/>
</g>
</g>
</g>
<defs>
<clipPath id="clip0_1_7225">
<rect width="60" height="60" fill="white" transform="translate(0.5 0.139648)"/>
</clipPath>
<clipPath id="clip1_1_7225">
<rect width="60" height="60" fill="white" transform="translate(0.5 0.139648)"/>
</clipPath>
<clipPath id="clip2_1_7225">
<rect width="60" height="60" fill="white" transform="translate(0.5 0.139648)"/>
</clipPath>
</defs>
</svg>
