<svg width="61" height="61" viewBox="0 0 61 61" fill="none" xmlns="http://www.w3.org/2000/svg">
<g clip-path="url(#clip0_1_7253)">
<g clip-path="url(#clip1_1_7253)">
<path d="M24.0465 4.59277C20.3452 4.59277 16.9904 6.77047 15.4836 10.1511L9.38656 23.8303C5.73148 24.0815 2.84375 27.124 2.84375 30.8428V36.2335C2.84375 39.4695 5.46711 42.0928 8.70312 42.0928H10.3092C10.3179 41.6418 10.3293 41.1911 10.3438 40.7402C9.9623 39.9627 9.74727 39.0887 9.74727 38.1642L9.64062 34.0069C9.64062 30.9324 10.2662 29.7491 12.5483 29.2894C13.6331 29.0708 14.5413 28.3317 14.9858 27.3183L22.5148 10.1511C24.0215 6.77047 27.3764 4.59277 31.0777 4.59277H24.0465Z" fill="#EEF1FB"/>
<path d="M8.70312 42.0928C5.46711 42.0928 2.84375 39.4695 2.84375 36.2335V30.8428C2.84375 27.124 5.73148 24.0815 9.38656 23.8303L15.4836 10.1511C16.9903 6.77047 20.3451 4.59277 24.0465 4.59277H34.7217C38.2441 4.59277 41.4692 6.56715 43.0711 9.70426L46.0859 15.6085M58.1562 30.8428C58.1562 26.9596 55.0082 23.8116 51.125 23.8116H19.1328M28.7422 15.6085V4.70996M32.9609 42.0928H27.6873M21.242 37.4053C18.6532 37.4053 16.5545 39.504 16.5545 42.0928C16.5545 44.6816 18.6532 46.7803 21.242 46.7803C23.8307 46.7803 25.9295 44.6816 25.9295 42.0928C25.9295 39.504 23.8309 37.4053 21.242 37.4053Z" stroke="#405FF2" stroke-width="3" stroke-miterlimit="10" stroke-linecap="round" stroke-linejoin="round"/>
<path d="M58.1562 41.7413C58.1562 46.2394 54.5097 49.9444 50.0117 49.9444C45.5136 49.9444 41.8671 46.298 41.8671 41.7999C41.8671 37.3017 45.5722 33.6553 50.0703 33.6553M44.0351 48.2452L36.5938 55.6866" stroke="#FF5CF3" stroke-width="3" stroke-miterlimit="10" stroke-linecap="round" stroke-linejoin="round"/>
</g>
</g>
<defs>
<clipPath id="clip0_1_7253">
<rect width="60" height="60" fill="white" transform="translate(0.5 0.139648)"/>
</clipPath>
<clipPath id="clip1_1_7253">
<rect width="60" height="60" fill="white" transform="translate(0.5 0.139648)"/>
</clipPath>
</defs>
</svg>
